<svg viewBox="0 0 20 20" xmlns="http://www.w3.org/2000/svg" xml:space="preserve" fill-rule="evenodd" clip-rule="evenodd" stroke-linejoin="round" stroke-miterlimit="2">
  <g transform="matrix(.03466 0 0 .03466 2.603 1.335)" fill="#444">
    <path d="M426.777 73.223A250 250 0 0 0 250 0C112.021 0 0 112.021 0 250c0 137.979 112.021 250 250 250a250 250 0 0 0 176.777-73.223l-53.033-53.033A175 175 0 0 1 250 425c-96.585 0-175-78.415-175-175S153.415 75 250 75a175 175 0 0 1 123.744 51.256l53.033-53.033Z"/>
    <path d="M73.223 426.777a250 250 0 0 0 353.554 0l-53.033-53.033a175 175 0 0 1-247.488 0l-53.033 53.033Z"/>
    <circle cx="175" cy="250" r="37.5"/>
    <circle cx="325" cy="250" r="37.5"/>
  </g>
</svg>
