<svg xmlns="http://www.w3.org/2000/svg" width="77" height="32" viewBox="0 0 77 32">
    <path fill="none" stroke="#bca090" stroke-width="2" d="M1 1h75v30H1z"/>
    <path fill="#bca090" d="M11.2 11v4.5h7.4V18h-7.4v7h-3V8.2h11.3V11h-8.3zm18.5 11.5c1.3 0 2.4-.4 3-1.3S34 19 34 17.5V8.2h2.8v9.4c0 2.4-.6 4.3-2 5.6-1.3 1.3-3 2-5 2s-4-.7-5.2-2-2-3.2-2-5.6V8.2h2.8v9.3c0 1.5.4 2.8 1.2 3.7.8 1 1.8 1.3 3 1.3zM44.3 11c-.5.3-.8.8-.8 1.5s.3 1.2.8 1.5c.5.4 1.7.8 3.4 1.2 1.7.4 3 1 4 1.7.7.7 1.2 1.8 1.2 3.3 0 1.4-.7 2.6-1.8 3.5s-2.5 1.4-4.3 1.4c-2.8 0-5-1-7-2.7l1.7-2.2c1.7 1.5 3.4 2.3 5.2 2.3 1 0 1.6-.2 2-.6s1-1 1-1.6-.3-1-.8-1.5-1.4-.8-2.6-1l-2.8-1s-1.3-.5-1.8-1c-1-.6-1.4-1.8-1.4-3.3 0-1.6.5-2.8 1.7-3.6 1-.8 2.5-1.2 4-1.2 1.2 0 2.3.2 3.3.5 1 .4 2 1 2.8 1.5L51 12c-.6-.5-1.3-.8-2.2-1-.8-.4-1.6-.6-2.5-.6s-1.5.2-2 .5zm24-2.8V11h-9v4.3h8v2.5h-8v4.5h9V25h-12V8.2h12z"/>
</svg>
