<svg width="77" height="32" viewBox="0 0 77 32" xmlns="http://www.w3.org/2000/svg" xmlns:xlink="http://www.w3.org/1999/xlink">
    <defs>
        <rect id="a" x="4" y="46" width="77" height="32"/>
        <mask id="b" maskContentUnits="userSpaceOnUse" maskUnits="objectBoundingBox" x="0" y="0" width="77" height="32" fill="#fff">
            <use xlink:href="#a"/>
        </mask>
    </defs>
    <g transform="translate(-4 -46)" fill="none" fill-rule="evenodd">
        <use stroke="#FFF" mask="url(#b)" stroke-width="4" xlink:href="#a"/>
        <path d="M15.16,56.864 L15.16,61.472 L22.6,61.472 L22.6,64.088 L15.16,64.088 L15.16,71 L12.328,71 L12.328,54.224 L23.512,54.224 L23.488,56.864 L15.16,56.864 Z M33.712,68.504 C35.0240066,68.504 36.0639962,68.0560045 36.832,67.16 C37.6000038,66.2639955 37.984,65.0480077 37.984,63.512 L37.984,54.224 L40.816,54.224 L40.816,63.632 C40.816,66.0480121 40.1520066,67.9079935 38.824,69.212 C37.4959934,70.5160065 35.7920104,71.168 33.712,71.168 C31.6319896,71.168 29.9280066,70.5160065 28.6,69.212 C27.2719934,67.9079935 26.608,66.0480121 26.608,63.632 L26.608,54.224 L29.44,54.224 L29.44,63.512 C29.44,65.0480077 29.8239962,66.2639955 30.592,67.16 C31.3600038,68.0560045 32.3999934,68.504 33.712,68.504 L33.712,68.504 Z M48.304,56.936 C47.7759974,57.2720017 47.512,57.7799966 47.512,58.46 C47.512,59.1400034 47.7759974,59.6599982 48.304,60.02 C48.8320026,60.3800018 49.9559914,60.7679979 51.676,61.184 C53.3960086,61.6000021 54.6919956,62.1839962 55.564,62.936 C56.4360044,63.6880038 56.872,64.7959927 56.872,66.26 C56.872,67.7240073 56.3200055,68.9119954 55.216,69.824 C54.1119945,70.7360046 52.664009,71.192 50.872,71.192 C48.2479869,71.192 45.9200102,70.288009 43.888,68.48 L45.664,66.344 C47.3600085,67.8160074 49.1199909,68.552 50.944,68.552 C51.8560046,68.552 52.5799973,68.356002 53.116,67.964 C53.6520027,67.571998 53.92,67.0520032 53.92,66.404 C53.92,65.7559968 53.6680025,65.2520018 53.164,64.892 C52.6599975,64.5319982 51.7920062,64.2040015 50.56,63.908 C49.3279938,63.6119985 48.3920032,63.3400012 47.752,63.092 C47.1119968,62.8439988 46.5440025,62.520002 46.048,62.12 C45.055995,61.3679962 44.56,60.2160078 44.56,58.664 C44.56,57.1119922 45.1239944,55.9160042 46.252,55.076 C47.3800056,54.2359958 48.7759917,53.816 50.44,53.816 C51.5120054,53.816 52.5759947,53.9919982 53.632,54.344 C54.6880053,54.6960018 55.5999962,55.1919968 56.368,55.832 L54.856,57.968 C54.3599975,57.5199978 53.6880042,57.1520014 52.84,56.864 C51.9919958,56.5759986 51.1560041,56.432 50.332,56.432 C49.5079959,56.432 48.8320026,56.5999983 48.304,56.936 L48.304,56.936 Z M72.16,54.224 L72.16,56.888 L63.208,56.888 L63.208,61.328 L71.248,61.328 L71.248,63.848 L63.208,63.848 L63.208,68.336 L72.448,68.336 L72.448,71 L60.376,71 L60.376,54.224 L72.16,54.224 Z" fill="#FFF"/>
    </g>
</svg>
