<svg width="20" height="20" viewBox="0 0 20 20" xmlns="http://www.w3.org/2000/svg" fill-rule="evenodd" clip-rule="evenodd">
  <path fill="none" stroke="#444" stroke-width="1.33334" d="M1.333334 5.000001h17.333342v10.000005H1.333334z"/>
  <g fill="#444" fill-rule="nonzero">
    <path d="M11.33327614 9.69964623l-1.30177997 1.30177997c.71193893-.0166648 1.28511517-.58990743 1.30177997-1.30177997z"/>
    <path d="M13.18446342 9.7708866c-.02981074-.03512223-.41462824-.48002597-1.02259474-.8998993l-.41164052.41164052c.39769786.26252043.70105037.54940732.86384756.7174496-.35706496.36875024-1.38849005 1.3098136-2.61405013 1.3098136-.0885691 0-.17600952-.00544428-.26238764-.01473939l-.49390223.49383585c.24160643.0604182.49456617.09633716.75628987.09633716 1.75451815 0 3.12700734-1.58860046 3.18450422-1.65625557.11293557-.13265448.11293557-.3253288-.00006639-.45818247zM12.74938594 7.7865137c0-.01766071-.00690494-.0345247-.01945333-.0469403l-.46946938-.469403c-.02595991-.0259599-.0678543-.0259599-.0938806 0L11.1157042 8.32104884c-.34537968-.12568314-.72070289-.2063514-1.1156786-.2063514-1.75458455 0-3.12700735 1.58853406-3.18457063 1.65625557-.11293557.13278726-.11293557.32546159.0000664.45831525.0343255.04023454.53665974.62104604 1.30841933 1.0834777l-.85382213.85382212c-.012482.012482-.01945333.0292796-.01945333.0469403 0 .0177271.00697133.03459108.01945333.0469403l.46946939.46940298c.01294675.01288037.02994352.01945334.0469403.01945334.01699676 0 .03399353-.00657297.0469403-.01945334L12.729999 7.8333212c.01241561-.01228282.01938694-.0291468.01938694-.0468075zm-5.36341048 2.21356372c.24107529-.24904251.78995145-.75881283 1.49830513-1.0636924-.13816516.21020225-.21916539.46136936-.21916539.73172424 0 .3097263.1062962.59389105.28350082.82009416l-.40659461.40652821c-.5412409-.30009922-.95547078-.68750607-1.15604595-.8946542z"/>
  </g>
</svg>
