<svg xmlns="http://www.w3.org/2000/svg" width="77" height="32" xmlns:xlink="http://www.w3.org/1999/xlink" viewBox="0 0 77 32">
    <defs>
        <path id="a" d="M4 46h77v32H4z"/>
        <mask id="b" width="77" height="32" x="0" y="0" fill="#fff">
            <use xlink:href="#a"/>
        </mask>
    </defs>
    <g fill="none" fill-rule="evenodd" transform="translate(-4 -46)">
        <use stroke="#ffb830" stroke-width="4" mask="url(#b)" xlink:href="#a"/>
        <path fill="#ffb830" d="M15.2 57v4.5h7.4V64h-7.4v7h-3V54.2h11.3V57h-8.3zm18.5 11.5c1.3 0 2.4-.4 3-1.3 1-1 1.3-2.2 1.3-3.7v-9.3h2.8v9.4c0 2.4-.6 4.3-2 5.6-1.3 1.3-3 2-5 2-2.2 0-4-.7-5.2-2-1.3-1.3-2-3.2-2-5.6v-9.4h2.8v9.3c0 1.5.4 2.8 1.2 3.7.8 1 1.8 1.3 3 1.3zM48.3 57c-.5.3-.8.8-.8 1.5 0 .6.3 1.2.8 1.5.5.4 1.7.8 3.4 1.2 1.7.4 3 1 4 1.7.7.7 1.2 1.8 1.2 3.3 0 1.4-.7 2.6-1.8 3.5-1 1-2.5 1.4-4.3 1.4-2.8 0-5-1-7-2.7l1.7-2.2c1.7 1.5 3.4 2.3 5.2 2.3 1 0 1.6-.2 2-.6.7-.4 1-1 1-1.6 0-.6-.3-1-.8-1.5s-1.4-.8-2.6-1l-2.8-1c-.7-.2-1.3-.5-1.8-1-1-.6-1.4-1.8-1.4-3.3 0-1.6.5-2.8 1.7-3.6 1-.8 2.5-1.2 4-1.2 1.2 0 2.3.2 3.3.5 1 .4 2 1 2.8 1.5L55 58c-.6-.5-1.3-.8-2.2-1-.8-.4-1.6-.6-2.5-.6-.8 0-1.5.2-2 .5zm24-2.8V57h-9v4.3h8v2.5h-8v4.5h9V71h-12V54.2h12z"/>
    </g>
</svg>
