<svg viewBox="0 0 20 20" xmlns="http://www.w3.org/2000/svg" xml:space="preserve" fill-rule="evenodd" clip-rule="evenodd" stroke-linejoin="round" stroke-miterlimit="2">
  <path d="M14.333 3.5V1.333H5.667V3.5H3.5v2.167H1.333v8.666H3.5V16.5h2.167v2.167h8.666V16.5H16.5v-2.167h2.167V5.667H16.5V3.5h-2.167ZM7.038 9.316l.604-1.35c.22-.347.19-.772-.05-1.012a.615.615 0 0 0-.106-.085.668.668 0 0 0-.558-.065.912.912 0 0 0-.502.389c-.116.186-.827 1.929-1.135 2.795-.307.867-.184 2.457 1.001 3.645 1.258 1.258 3.08 1.545 4.241.673a.7.7 0 0 0 .136-.089l3.58-2.988c.173-.144.43-.44.2-.778-.226-.33-.653-.105-.827.006l-2.06 1.498a.093.093 0 0 1-.133-.015c-.052-.065-.061-.235.02-.302l3.158-2.68c.273-.246.312-.603.09-.848-.216-.24-.558-.233-.833.015l-2.843 2.223a.129.129 0 0 1-.08.029.128.128 0 0 1-.102-.053c-.056-.063-.077-.17-.015-.233l3.22-3.125a.633.633 0 0 0 .032-.889.602.602 0 0 0-.437-.187.638.638 0 0 0-.452.18l-3.29 3.09c-.079.079-.233 0-.252-.092a.099.099 0 0 1 .028-.092l2.519-2.867a.622.622 0 1 0-.876-.879l-3.82 4.222c-.136.137-.338.144-.433.065a.144.144 0 0 1-.025-.2Z" fill="#444"/>
</svg>
