<svg viewBox="0 0 30 30" xmlns="http://www.w3.org/2000/svg" fill-rule="evenodd" clip-rule="evenodd" stroke-linejoin="round" stroke-miterlimit="2">
  <path d="M20.128 2H9.887C5.539 2 2 5.525 2 9.858v10.284C2 24.475 5.54 28 9.887 28h10.226C24.475 28 28 24.475 28 20.142V9.858C28.014 5.525 24.475 2 20.128 2zm5.705 18.778a5.061 5.061 0 01-5.055 5.055H9.222a5.061 5.061 0 01-5.055-5.055V9.222a5.061 5.061 0 015.055-5.055h11.556a5.061 5.061 0 015.055 5.055v11.556z" fill="#444" fill-rule="nonzero"/>
  <circle cx="14.87" cy="5.26" r="1.09" fill="#444" transform="translate(.556 .556) scale(1.44443)"/>
  <path d="M15.043 8.428c-3.683 0-6.687 2.975-6.687 6.644 0 3.684 2.99 6.66 6.687 6.66 3.698 0 6.688-2.978 6.688-6.66-.014-3.669-3.004-6.644-6.688-6.644zm.073 10.905a4.324 4.324 0 01-4.334-4.319 4.324 4.324 0 014.334-4.318 4.324 4.324 0 014.333 4.318 4.324 4.324 0 01-4.333 4.32z" fill="#444" fill-rule="nonzero"/>
</svg>
