<svg width="20" height="20" viewBox="0 0 20 20" xmlns="http://www.w3.org/2000/svg" fill-rule="evenodd" clip-rule="evenodd" stroke-linejoin="round" stroke-miterlimit="2">
  <path d="M7.969 7.46L5.331 8.946 2.755 7.457V4.38L5.397 2.89l2.605 1.543-.034 3.027zM5.364 1.34L1.4 3.63v4.578l3.964 2.288L9.33 8.208V3.629L5.364 1.34zM17.24 7.454L14.6 8.938l-2.576-1.487V4.372l2.644-1.488 2.604 1.543-.033 3.027zm-2.605-6.121l-3.964 2.29V8.2l3.964 2.289L18.6 8.2V3.623l-3.965-2.29zM12.604 15.627L9.966 17.11 7.39 15.623v-3.078l2.643-1.488 2.605 1.543-.034 3.027zM10 9.505l-3.964 2.29v4.579L10 18.662l3.966-2.288v-4.579l-3.966-2.29z" fill="#444" fill-rule="nonzero"/>
</svg>
