<svg viewBox="0 0 20 20" xmlns="http://www.w3.org/2000/svg" xml:space="preserve" fill-rule="evenodd" clip-rule="evenodd" stroke-linejoin="round" stroke-miterlimit="2">
  <path d="M1.237 9.505C6.07 7.399 9.291 6.012 10.903 5.34c4.603-1.914 5.56-2.247 6.183-2.258.137-.002.444.032.642.193.168.136.214.32.236.449.022.129.05.422.028.652-.25 2.62-1.329 8.981-1.878 11.916-.232 1.242-.69 1.659-1.133 1.7-.962.088-1.693-.636-2.625-1.248-1.459-.956-2.283-1.551-3.7-2.484-1.636-1.079-.575-1.671.358-2.64.244-.253 4.485-4.11 4.567-4.46.01-.045.02-.208-.077-.294s-.24-.056-.343-.033c-.147.033-2.477 1.573-6.992 4.62-.661.455-1.26.676-1.797.665-.592-.013-1.73-.335-2.576-.61-1.038-.337-1.863-.516-1.792-1.089.038-.298.449-.603 1.233-.915Z"/>
</svg>
