<svg xmlns="http://www.w3.org/2000/svg" viewBox="0 0 512 512" width="20" height="20">
  <path fill="none" stroke="#000" d="M446.604 124.392L326.608 4.395C323.762 1.548 319.873 0 316 0H106C81.187 0 61 20.187 61 45v422c0 24.813 20.187 45 45 45h300c24.813 0 45-20.187 45-45V135c0-4.116-1.743-7.957-4.396-10.608zM331 51.213L399.787 120H346c-8.271 0-15-6.729-15-15zM406 482H106c-8.271 0-15-6.729-15-15V45c0-8.271 6.729-15 15-15h195v75c0 24.813 20.187 45 45 45h75v317c0 8.271-6.729 15-15 15z"/>
  <path fill="none" stroke="#000" d="M346 242H196c-8.284 0-15 6.716-15 15s6.716 15 15 15h150c8.284 0 15-6.716 15-15s-6.716-15-15-15zM346 302H196c-8.284 0-15 6.716-15 15s6.716 15 15 15h150c8.284 0 15-6.716 15-15s-6.716-15-15-15zM346 362H196c-8.284 0-15 6.716-15 15s6.716 15 15 15h150c8.284 0 15-6.716 15-15s-6.716-15-15-15z"/>
  <circle cx="136" cy="257" r="15"/>
  <circle cx="136" cy="317" r="15"/>
  <circle cx="136" cy="377" r="15"/>
</svg>
