<svg viewBox="0 0 20 20" xmlns="http://www.w3.org/2000/svg" fill-rule="evenodd" clip-rule="evenodd" stroke-linejoin="round" stroke-miterlimit="2">
  <path d="M18.500005 9.98987356c-.00065386-.12227145-.00326929-.24323518-.00850015-.36419891V2.74643463l-1.90207293 1.90207292c-1.55618204-1.9053422-3.16598043-3.12544124-5.81868234-3.12544124v4.2533463c1.28352326.33085214 2.16034683.89643931 2.6853948 2.00472862l-2.20677074 2.20677075c2.79458909-.01111558 5.95206937-.01765416 7.25063136.00130772" fill="#444"/>
  <path d="M9.96318643 1.52654052c-.1218364.00040477-.24306565.00323818-.36389012.0087026H2.71999204l1.90202411 1.90182172c-1.90546467 1.55655113-3.11128077 5.11409314-3.1094593 5.93476857 0 .00020239 4.36000271-.0129527 4.37639598-.0072859.10422882-1.3217833.80711558-2.11938672 1.86579701-2.79393943l2.20661512 2.20661511c-.01113124-2.79495136-.01760759-5.95237615.0014167-7.25048028M1.50000892 10.01359958c.00040478.1218364.00323818.24306565.0087026.36389012v6.87930427l1.90182173-1.90182172c1.55655112 1.90526229 3.92446792 3.12220961 6.57673712 3.12220961 2.76014097 0 5.21225037-1.3175332 6.76232513-3.35778698L13.63224316 11.969256c-.30540056.56485947-.73951864 1.05018122-1.26268658 1.41670236-.54441848.42480832-1.31550933.7719004-2.38208382.7719004-.12891992 0-.22849385-.01497657-.30155522-.04331062-1.32158091-.1044312-2.46728835-.83383053-3.14184106-1.89251197l2.20661512-2.20661511c-2.79495137.01113123-5.95237616.0174052-7.25048029-.0014167" fill="#444" fill-rule="nonzero"/>
</svg>
