<svg viewBox="0 0 30 30" xmlns="http://www.w3.org/2000/svg" fill-rule="evenodd" clip-rule="evenodd" stroke-linecap="round" stroke-linejoin="round">
  <path d="M28.265 22.659v-1c0-3.84-3.16-7-7-7m0-8c2.194 0 4 1.805 4 4 0 2.194-1.806 4-4 4M1.713 22.659v-1c0-3.84 3.16-7 7-7m0-8c-2.195 0-4 1.805-4 4 0 2.194 1.805 4 4 4" fill="none" fill-rule="nonzero" stroke="#444" stroke-width="1.5"/>
  <path d="M4.596 26.891v-1.487C4.596 19.697 9.292 15 15 15s10.404 4.697 10.404 10.404v1.487M15 15c3.261 0 5.945-2.684 5.945-5.945 0-3.262-2.684-5.946-5.945-5.946S9.055 5.793 9.055 9.055C9.055 12.316 11.739 15 15 15z" fill="none" fill-rule="nonzero" stroke="#444" stroke-width="2.2295499999999997"/>
</svg>
