<svg viewBox="0 0 30 30" xmlns="http://www.w3.org/2000/svg" fill-rule="evenodd" clip-rule="evenodd" stroke-linejoin="round" stroke-miterlimit="2">
  <g transform="matrix(.06274 0 0 .06274 -85.91 -34.02)">
    <path d="M1694.95 865.812v16.733h27.679c-1.116 7.181-8.367 21.055-27.679 21.055-16.663 0-30.259-13.805-30.259-30.816 0-17.012 13.596-30.817 30.259-30.817 9.482 0 15.826 4.044 19.452 7.531l13.247-12.759c-8.506-7.948-19.522-12.759-32.699-12.759-26.981 0-48.805 21.822-48.805 48.804 0 26.982 21.824 48.804 48.805 48.804 28.167 0 46.853-19.8 46.853-47.688 0-3.207-.349-5.648-.768-8.088h-46.085z" fill="#444" fill-rule="nonzero"/>
    <path d="M1757.226 767.744c-22.568 0-38.086-11.061-38.086-33.63v-.535l-13.536-109.647h45.885c6.19 0 18.255 8.013 19.59 14.058l21.103 97.34c-.482 22.153-12.596 32.414-34.863 32.414m5.31 168.81h-297.743c-5.251 0-11.217-6.139-11.217-11.39V791.77s1.079.675 5.721.675c20.945 0 39.341-11.102 49.63-27.726 10.288 16.624 28.683 27.726 49.629 27.726 20.947 0 39.341-11.102 49.63-27.726 10.289 16.624 28.684 27.726 49.63 27.726 20.947 0 39.342-11.102 49.631-27.726 10.288 16.624 28.684 27.726 49.63 27.726 5.015 0 5.459-1.002 5.459-1.002v134.265c0 6.19-4.951 10.846-11.14 10.846m-302.36-301.143c1.335-6.045 5.911-11.319 12.102-11.319l48.349-.16-14.338 112.35v.535c0 22.569-13.17 30.927-35.738 30.927-22.268 0-30.991-10.572-31.472-32.725l21.097-99.608zm84.54-11.479h63.513l.863 110.182c0 22.569-16.011 33.63-38.58 33.63-22.399 0-38.056-9.786-38.328-32.121l12.532-111.691zm162.272 110.692c-.275 22.334-12.764 33.12-35.163 33.12-22.568 0-40.689-11.061-40.689-33.63l-.206-110.182h61.587l14.471 110.692zm95.582-110.065c-3.081-13.955-15.689-24.083-29.979-24.083h-306.528c-14.29 0-26.899 10.128-29.98 24.082l-23.977 108.607v.949c0 20.944 11.099 39.337 27.72 49.626v147.767c0 16.852 13.711 30.563 30.564 30.563h298.921c16.852 0 30.563-13.711 30.563-30.563V783.069c16.035-10.406 26.674-28.456 26.674-48.955v-.949l-23.978-108.606z" fill="#444" fill-rule="nonzero"/>
  </g>
</svg>
